<svg version="1.1" xmlns="http://www.w3.org/2000/svg" xmlns:xlink="http://www.w3.org/1999/xlink" x="0px" y="0px" viewBox="0 0 256 256" enable-background="new 0 0 256 256" xml:space="preserve">
<metadata> Svg Vector Icons : http://www.onlinewebfonts.com/icon </metadata>
<g><g><g><path fill="#000000" d="M45.7,44.9c-11.4,2.5-16.8,11.2-16.8,27.3c0,10.3,2.6,17.4,8.6,23.5c13.8,14,35.4,5.7,39.8-15.2c1.5-7.1,0.8-16.8-1.5-23.2c-1.4-3.7-5.7-8.7-8.9-10.4C61.4,44.2,52.7,43.3,45.7,44.9z"/><path fill="#000000" d="M195.1,44.9c-4.9,1.1-7.8,2.7-10.8,5.9c-3.1,3.4-4.7,6.8-5.7,12.7c-3.3,18.5,4.2,34.2,18.4,38.3c12.3,3.6,25.2-5.2,29.1-19.6c2-7.3,0.9-21-2.1-27C219.3,46.2,207.9,42.1,195.1,44.9z"/><path fill="#000000" d="M119.9,52c-10.8,2.4-18.3,9.9-21.3,21.3c-1.4,5.3-2.1,15.6-1.4,21.9c2.1,22,19,37.7,37.6,34.7c15-2.4,26.7-16.4,28.7-34.2c0.6-5.7-0.1-17.4-1.4-22.4c-3-11.6-10.5-19-21.6-21.4C135.6,50.9,124.7,50.9,119.9,52z"/><path fill="#000000" d="M38.7,104.9C16.2,109.4,10,117.5,10,142.3v7.6l2.5,2.3c6,5.6,14.5,8.7,27.7,10.3c5.6,0.7,21.3,0.7,25.4,0.1c2.5-0.4,2.6-0.5,3.4-3.7c0.5-1.8,2-5.5,3.3-8.2c3.9-7.9,10.5-13.7,20.1-17.6l3.9-1.5l-0.8-4.1c-2.5-13.2-10.1-19.3-27.8-22.7c-4-0.7-4.3-0.7-4.9,0.4c-1.2,1.9-5.3,3.4-9.4,3.4c-4.2,0-7-0.9-9.1-3.1C42.9,104,42.9,104,38.7,104.9z"/><path fill="#000000" d="M187,105c-15.9,3.3-22.6,8.2-26,19c-1.8,5.9-1.7,6.1,2.9,7.6c15.9,5.3,24,13.6,28,28.9l0.7,2.5h9.1c11.3,0,21-1.2,28.3-3.6c6.3-2.1,9.7-3.9,13.4-7.3l2.7-2.4l-0.4-10.4c-0.4-11-1.1-15.1-3.7-20.2c-3.8-7.4-10.4-11.3-23.9-14.1l-5.3-1.1l-1.4,1.5c-2,2.1-4.7,3.1-8.9,3.1c-4.1,0-8.1-1.5-9.4-3.4C192.2,104,192.1,104,187,105z"/><path fill="#000000" d="M107.8,133.8c-20,4.6-29.3,11.3-33.2,23.9c-2.5,8.1-4.4,30.8-3,35.2c1.5,4.4,9.8,10.4,19,13.7c11.6,4.1,20.9,5.3,40.3,5.3c13.6-0.1,16.7-0.2,23.4-1.4c8.9-1.5,18.6-4.6,23.8-7.5c4.9-2.7,10-7.5,10.8-10.1c0.9-2.5,0.4-17.2-0.9-25.9c-2.8-20.1-12-28.4-37.2-33.7l-6.3-1.3l-2.7,2.4c-3.1,2.8-6.2,3.9-11.6,3.9c-5.4,0-8.6-1.1-11.6-3.8c-1.4-1.2-3-2.3-3.6-2.3C114.5,132.3,111.2,133,107.8,133.8z"/></g></g></g>
</svg>