<svg version="1.1" xmlns="http://www.w3.org/2000/svg" xmlns:xlink="http://www.w3.org/1999/xlink" x="0px" y="0px" viewBox="0 0 256 256" enable-background="new 0 0 256 256" xml:space="preserve">
<metadata> Svg Vector Icons : http://www.onlinewebfonts.com/icon </metadata>
<g><g><g><path fill="#000000" d="M119.7,28.5c-0.2,0.2-0.4,2.1-0.4,4.1c0,5.7-0.3,6.2-5.7,8.7c-5.8,2.7-8.8,5.4-11,9.8c-3.4,6.9-2.7,15.1,1.7,20.6c2.9,3.7,7,6.3,15.9,10.2c4.1,1.8,8.3,3.9,9.4,4.7c5,3.8,4.2,9.9-1.7,12.5c-4.4,2-13.6,0.9-20.9-2.5c-2.6-1.2-3.2-1.3-3.8-0.7c-0.8,0.8-3.4,9.3-3.4,11.2c0,2.1,4.9,4.3,13,6c2.4,0.5,4.6,1.2,4.8,1.6c0.2,0.3,0.4,2.4,0.4,4.4c0,5.7,0.2,5.9,6,5.9c3.1,0,5.1-0.2,5.5-0.7c0.4-0.4,0.7-2.4,0.7-5.2c0-5.4,0.6-6.3,4.7-7.7c14-4.5,19.4-21.1,10.7-32.8c-3.4-4.7-4.1-5.1-20.4-12.5c-5.4-2.5-7.8-4.8-7.8-7.7c0-2.8,2.1-5.3,5.2-6.2c3.5-0.9,10-0.3,15.4,1.7c3.2,1.2,4.8,1.6,5.3,1.2c0.9-0.8,3.7-10.8,3.3-11.8c-0.4-1.2-4.7-2.9-9.9-4c-2.4-0.5-4.8-1.3-5.1-1.8c-0.4-0.5-0.7-2.4-0.7-4.5c0-2.1-0.3-3.9-0.7-4.3C129.6,28.1,120.4,27.9,119.7,28.5z"/><path fill="#000000" d="M217.3,55.3c-19.2,1-20,1.1-21.2,2.3c-2.7,2.5-2.1,3.8,5.7,11.7l7,7.1L166.3,119l-42.5,42.5l-25.9-25.9c-14.3-14.3-26.7-26.2-27.5-26.5c-2.3-0.8-4.6-0.7-6.9,0.5c-1.1,0.6-13.3,12.4-27.1,26.2c-27.6,27.7-27.2,27.2-25.7,32.2c1,3.4,5.8,7.9,8.8,8.5c4.7,0.8,5,0.6,27.3-21.7l20.8-20.7L93,159.7c14,14,26.2,25.9,27,26.3c1.8,0.9,6.1,1.1,7.8,0.2c0.7-0.3,22.5-21.9,48.5-47.8l47.3-47.2l7.1,7c5.9,5.8,7.4,7,8.8,7c1.8-0.1,3.1-0.8,4-2.7c0.7-1.4,0.8-2.9,2-27.5c0.9-18.2,0.8-19.1-1.8-20.3C242.1,54.1,242.5,54.1,217.3,55.3z"/><path fill="#000000" d="M203.2,127.6L184.8,146v38.1v38.1l1.3,1.8c2.4,3.6,3.7,3.9,16.9,3.9c8.7,0,12.3-0.2,13.6-0.8c2.3-0.9,4.7-3.8,5.1-6c0.2-1,0.2-26.6,0.2-56.9l-0.2-55L203.2,127.6z"/><path fill="#000000" d="M49.4,168.2c-10.2,10.1-17.6,17.1-18.8,17.5l-1.8,0.7l0.2,17.5c0.2,16.4,0.2,17.6,1.3,19.4c0.6,1.1,1.8,2.4,2.7,3.1c1.5,1.1,2.2,1.2,14.8,1.2c15.1,0,15.3-0.1,17.6-4.8l1.2-2.5l-0.1-34.5l-0.2-34.4L49.4,168.2z"/><path fill="#000000" d="M152.3,178.5c-8.3,8.3-16,15.7-17.4,16.5l-2.4,1.5l0.2,12.9c0.2,12,0.2,12.9,1.3,14.4c2.8,3.8,2.9,3.8,16.8,4c14.1,0.2,15.2-0.1,17.8-3.8l1.2-1.8v-27.7c0-23.7-0.1-27.9-0.8-29.3c-0.5-0.9-1.1-1.7-1.3-1.7C167.5,163.5,160.5,170.3,152.3,178.5z"/><path fill="#000000" d="M81.4,166.4c-0.2,0.7-0.3,13.4-0.3,28.2c0,30.3-0.1,29.6,4.2,32c2.1,1.2,2.8,1.3,14.3,1.3c11.3,0,12.3-0.1,14.2-1.2c1.2-0.7,2.6-2.1,3.3-3.3c1.1-1.9,1.2-2.9,1.2-13.9v-11.9l-2.7-1.1c-2.1-0.8-5.6-4-17.9-16.3c-8.4-8.3-15.4-15.1-15.6-15.1C81.9,165.2,81.6,165.7,81.4,166.4z"/></g></g></g>
</svg>