<svg version="1.1" xmlns="http://www.w3.org/2000/svg" xmlns:xlink="http://www.w3.org/1999/xlink" x="0px" y="0px" viewBox="0 0 256 256" enable-background="new 0 0 256 256" xml:space="preserve">
<metadata> Svg Vector Icons : http://www.onlinewebfonts.com/icon </metadata>
<g><g><path fill="#000000" d="M92.7,168.2c-2-1.8-3.4-3.2-5-4.4c-38.2-32-41-100.7-5.4-135.9c28.2-27.9,68-24.6,93,7c29.2,37,23.5,101.5-13.2,129.8c-0.9,0.7-1.7,1.5-3.6,3.3c6.9,2.8,13,5.6,19.3,7.9c15.1,5.6,30.4,11.1,45.6,16.6c16.1,5.9,24,18.4,22.5,35.5c-0.9,9.9-7.7,17.1-17.5,18.5c-3,0.4-6,0.4-9,0.4c-60.8,0-121.6,0-182.3,0c-4.3,0-8.9-0.2-12.9-1.6c-14.8-5.2-19-27.4-7.3-40.8c4.4-5,10.4-9.2,16.5-11.9c16.9-7.5,34.2-14,51.3-20.9C87.1,170.8,89.5,169.6,92.7,168.2L92.7,168.2z"/></g></g>
</svg>